<svg width="22" height="23" viewBox="0 0 22 23" fill="none" xmlns="http://www.w3.org/2000/svg">
<path d="M3.94672 7.20307H18.2789" stroke="#E26161" stroke-width="1.79152" stroke-linecap="round" stroke-linejoin="round"/>
<path d="M9.32104 10.7858V16.1604" stroke="#E26161" stroke-width="1.79152" stroke-linecap="round" stroke-linejoin="round"/>
<path d="M12.9039 10.7858V16.1604" stroke="#E26161" stroke-width="1.79152" stroke-linecap="round" stroke-linejoin="round"/>
<path d="M4.84216 7.20307L5.73792 17.9522C5.73792 18.4274 5.92667 18.883 6.26265 19.219C6.59863 19.555 7.05431 19.7437 7.52945 19.7437H14.6955C15.1707 19.7437 15.6264 19.555 15.9623 19.219C16.2983 18.883 16.4871 18.4274 16.4871 17.9522L17.3828 7.20307" stroke="#E26161" stroke-width="1.79152" stroke-linecap="round" stroke-linejoin="round"/>
<path d="M8.42511 7.20341V4.51612C8.42511 4.27855 8.51948 4.05071 8.68747 3.88272C8.85546 3.71474 9.0833 3.62036 9.32087 3.62036H12.9039C13.1415 3.62036 13.3693 3.71474 13.5373 3.88272C13.7053 4.05071 13.7997 4.27855 13.7997 4.51612V7.20341" stroke="#E26161" stroke-width="1.79152" stroke-linecap="round" stroke-linejoin="round"/>
</svg>
